<svg width="200" height="200" viewBox="0 0 200 200" fill="none" xmlns="http://www.w3.org/2000/svg">
<path d="M188.599 47.9532C184.877 45.9135 180.199 45.0965 174.891 45.3079C173.455 45.3693 172.05 44.8755 170.969 43.9293C169.889 42.9831 169.216 41.6576 169.09 40.2286C167.985 27.6247 162.539 18.6431 153.057 16.3748C146.787 14.8722 139.555 16.5177 132.174 20.6199C131.537 20.9749 130.836 21.2013 130.111 21.286C129.387 21.3707 128.653 21.3122 127.951 21.1138C127.249 20.9153 126.593 20.5809 126.021 20.1295C125.448 19.6781 124.971 19.1187 124.615 18.4831C118.316 7.05615 109.784 0 100.393 0C91.0022 0 82.5103 7.04472 76.2115 18.4717C75.8564 19.1071 75.3793 19.6664 74.8075 20.1177C74.2356 20.569 73.5804 20.9034 72.8789 21.1019C72.1775 21.3003 71.4437 21.3589 70.7196 21.2742C69.9954 21.1896 69.2951 20.9634 68.6587 20.6085C61.2719 16.5062 54.0454 14.8608 47.7695 16.3634C38.3099 18.6488 32.8813 27.6132 31.7647 40.2172C31.6447 41.6559 30.9703 42.9921 29.8831 43.9447C28.796 44.8973 27.3808 45.3921 25.9355 45.325C20.633 45.0965 15.949 45.9307 12.2328 47.9704C-3.31958 56.5006 3.80956 121.909 28.1631 145.762C48.4968 165.674 66.4712 171.204 87.5264 176.267C60.4702 189.648 76.8872 208.588 100.416 195.692C123.968 208.599 140.345 189.653 113.311 176.267C134.401 171.21 152.33 165.674 172.669 145.757C197.034 121.886 204.152 56.4835 188.599 47.9532ZM100.416 166.257C90.8241 166.257 81.625 162.455 74.8424 155.687C68.0599 148.92 64.2495 139.741 64.2495 130.17C64.2495 120.6 68.0599 111.421 74.8424 104.653C81.625 97.8858 90.8241 94.0839 100.416 94.0839C110.008 94.0839 119.207 97.8858 125.99 104.653C132.772 111.421 136.583 120.6 136.583 130.17C136.583 139.741 132.772 148.92 125.99 155.687C119.207 162.455 110.008 166.257 100.416 166.257V166.257Z" fill="#00BDEB"/>
</svg>
