<svg width="200" height="200" viewBox="0 0 200 200" fill="none" xmlns="http://www.w3.org/2000/svg">
<path d="M88.4064 181.08L50.8419 194.355C48.7829 195.082 46.5761 195.291 44.4166 194.965C42.2571 194.638 40.2115 193.786 38.461 192.482C36.7105 191.179 35.3089 189.465 34.3804 187.492C33.4519 185.52 33.0251 183.349 33.1377 181.173L35.1024 143.348C35.5416 135.001 32.9451 126.778 27.7908 120.189L2.8135 88.2725C1.44738 86.5263 0.541553 84.4665 0.1787 82.2811C-0.184153 80.0957 0.00747588 77.8544 0.736258 75.762C1.46504 73.6695 2.70763 71.7927 4.35056 70.3028C5.9935 68.8129 7.98441 67.7575 10.1414 67.233L46.6662 58.3651C55.4186 56.2402 63.0023 50.8074 67.8182 43.212L88.7787 10.1538C89.978 8.26836 91.6351 6.71567 93.5964 5.63986C95.5577 4.56406 97.7596 4 99.9977 4C102.236 4 104.438 4.56406 106.399 5.63986C108.36 6.71567 110.017 8.26836 111.217 10.1538L132.183 43.212C136.996 50.8071 144.578 56.24 153.329 58.3651L189.854 67.233C192.011 67.7568 194.003 68.8117 195.646 70.3013C197.29 71.7909 198.533 73.6677 199.263 75.7602C199.992 77.8527 200.184 80.0943 199.822 82.28C199.459 84.4657 198.553 86.526 197.187 88.2725L172.226 120.189C167.076 126.771 164.478 134.986 164.909 143.326L166.874 181.151C166.987 183.327 166.56 185.498 165.631 187.471C164.703 189.443 163.301 191.157 161.551 192.46C159.8 193.764 157.755 194.616 155.595 194.943C153.436 195.27 151.229 195.06 149.17 194.333L111.605 181.058C104.099 178.411 95.9081 178.419 88.4064 181.08V181.08Z" fill="#ECCE0C"/>
</svg>
