<svg width="200" height="200" viewBox="0 0 200 200" fill="none" xmlns="http://www.w3.org/2000/svg">
<path d="M180.733 72.3231H108.703C108.38 72.3226 108.063 72.2417 107.78 72.0876C107.497 71.9336 107.256 71.7113 107.081 71.4411C106.906 71.1709 106.801 70.8612 106.776 70.5403C106.752 70.2194 106.808 69.8974 106.939 69.6035L136.664 3.48148C137.809 0.624742 132.472 -1.28356 129.793 1.03611L8.7465 107.57C2.253 115.631 8.00213 127.612 18.3723 127.612H90.3963C90.7189 127.613 91.0363 127.694 91.3196 127.848C91.6028 128.002 91.8429 128.224 92.0181 128.495C92.1934 128.765 92.2981 129.074 92.3229 129.395C92.3477 129.716 92.2917 130.038 92.16 130.332L62.4353 196.471C61.29 199.328 66.6326 201.231 69.3067 198.917L190.336 92.3603C196.852 84.3043 191.097 72.3231 180.733 72.3231Z" fill="#FF2C57"/>
</svg>
