<svg width="200" height="200" viewBox="0 0 200 200" fill="none" xmlns="http://www.w3.org/2000/svg">
<path d="M178.89 78.7753L194.351 74.6444C194.614 74.574 194.86 74.4518 195.075 74.285C195.289 74.1182 195.468 73.9102 195.601 73.6732C195.734 73.4363 195.818 73.1752 195.848 72.9053C195.878 72.6354 195.854 72.3623 195.777 72.102C191.25 56.6115 183.047 42.4379 171.864 30.7821C171.677 30.5858 171.452 30.4288 171.204 30.3203C170.955 30.2118 170.687 30.154 170.415 30.1503C170.144 30.1465 169.874 30.197 169.623 30.2986C169.371 30.4002 169.142 30.551 168.95 30.7421L157.658 42.0376C157.285 42.4122 156.78 42.6262 156.251 42.6337C155.722 42.6412 155.212 42.4415 154.829 42.0776C145.61 33.3048 134.417 26.8648 122.19 23.2974C121.684 23.146 121.258 22.8042 121.002 22.3444C120.745 21.8846 120.678 21.3431 120.815 20.8349L124.961 5.40854C125.03 5.14624 125.047 4.87277 125.009 4.60414C124.971 4.33551 124.88 4.07713 124.74 3.8441C124.601 3.61106 124.417 3.40809 124.198 3.24702C123.979 3.08594 123.731 2.97001 123.466 2.90603C107.752 -0.968678 91.3275 -0.968678 75.6126 2.90603C75.3517 2.97171 75.1066 3.08871 74.8915 3.25019C74.6765 3.41167 74.4959 3.61437 74.3604 3.8464C74.225 4.07843 74.1372 4.33513 74.1025 4.60142C74.0678 4.86771 74.0867 5.13821 74.1582 5.3971L78.2982 20.8235C78.437 21.331 78.3715 21.8725 78.1159 22.3325C77.8602 22.7925 77.4346 23.1347 76.9297 23.286C64.7122 26.883 53.5255 33.3236 44.2904 42.0776C43.9069 42.4391 43.3971 42.6366 42.8696 42.6281C42.3422 42.6195 41.8389 42.4056 41.4674 42.0319L30.141 30.7364C29.761 30.3582 29.2462 30.1458 28.7094 30.1458C28.1727 30.1458 27.6579 30.3582 27.2779 30.7364C16.0604 42.3784 7.85137 56.5696 3.35958 72.0848C3.28385 72.3452 3.26078 72.6179 3.29164 72.8873C3.3225 73.1566 3.40669 73.4171 3.53936 73.6537C3.67203 73.8903 3.85054 74.0982 4.06445 74.2653C4.27836 74.4325 4.5234 74.5555 4.7854 74.6273L20.2461 78.7582C20.7561 78.8929 21.1933 79.2208 21.4649 79.6721C21.7365 80.1233 21.821 80.6625 21.7006 81.175C18.6869 93.5223 18.6869 106.411 21.7006 118.758C21.8236 119.274 21.7382 119.817 21.4628 120.271C21.1874 120.724 20.7441 121.051 20.2289 121.181L4.7682 125.317C4.50611 125.388 4.26076 125.51 4.0467 125.676C3.83263 125.843 3.65425 126.05 3.52189 126.287C3.38953 126.523 3.30596 126.784 3.27612 127.053C3.24628 127.322 3.27074 127.594 3.34812 127.854C7.87286 143.341 16.0668 157.513 27.2378 169.174C27.4249 169.37 27.6495 169.527 27.8983 169.636C28.1471 169.744 28.4151 169.802 28.6867 169.806C28.9582 169.809 29.2276 169.759 29.4793 169.657C29.731 169.556 29.96 169.405 30.1525 169.214L41.4731 157.918C41.8471 157.546 42.3514 157.334 42.8794 157.327C43.4073 157.319 43.9175 157.517 44.3019 157.878C53.5185 166.655 64.7118 173.095 76.9411 176.659C77.4465 176.811 77.8722 177.154 78.1278 177.615C78.3833 178.076 78.4486 178.619 78.3096 179.127L74.1696 194.553C74.1003 194.815 74.0842 195.088 74.1221 195.356C74.16 195.625 74.2513 195.883 74.3905 196.115C74.5297 196.348 74.7141 196.55 74.9328 196.711C75.1515 196.871 75.4002 196.987 75.6642 197.05C91.3768 200.928 107.8 200.928 123.512 197.05C123.772 196.983 124.017 196.865 124.231 196.703C124.445 196.541 124.625 196.339 124.76 196.107C124.896 195.875 124.983 195.619 125.019 195.354C125.054 195.088 125.036 194.818 124.967 194.559L120.821 179.133C120.685 178.624 120.753 178.084 121.009 177.624C121.266 177.165 121.691 176.823 122.195 176.67C134.414 173.075 145.601 166.634 154.835 157.878C155.219 157.518 155.728 157.322 156.255 157.33C156.782 157.339 157.285 157.552 157.658 157.924L168.984 169.225C169.172 169.413 169.395 169.562 169.64 169.664C169.886 169.766 170.149 169.818 170.415 169.818C170.681 169.818 170.945 169.766 171.191 169.664C171.436 169.562 171.659 169.413 171.847 169.225C183.072 157.585 191.286 143.391 195.777 127.871C195.852 127.611 195.875 127.339 195.844 127.07C195.814 126.801 195.729 126.541 195.597 126.305C195.464 126.069 195.285 125.861 195.072 125.695C194.858 125.528 194.613 125.406 194.351 125.334L178.89 121.198C178.38 121.064 177.941 120.737 177.67 120.285C177.398 119.833 177.314 119.294 177.436 118.781C180.449 106.436 180.449 93.549 177.436 81.2035C177.312 80.6894 177.395 80.1474 177.667 79.6935C177.939 79.2396 178.378 78.91 178.89 78.7753V78.7753ZM140.662 110.976C138.742 118.183 134.942 124.754 129.651 130.019C124.362 135.284 117.784 139.076 110.571 141.018C103.357 142.958 95.7566 142.958 88.5424 141.018C81.3251 139.095 74.7463 135.3 69.4742 130.019C64.1977 124.743 60.3991 118.179 58.457 110.982C56.5096 103.781 56.5096 96.1926 58.457 88.991C60.3819 81.7849 64.1828 75.2151 69.4742 69.948C74.7665 64.6884 81.3464 60.9026 88.5596 58.9667C95.7757 57.0263 103.378 57.0263 110.594 58.9667C117.813 60.8866 124.396 64.677 129.674 69.9537C134.951 75.2323 138.751 81.7977 140.696 88.9967C142.63 96.1979 142.618 103.781 140.662 110.976V110.976Z" fill="#18C85B"/>
</svg>
