<svg width="200" height="200" viewBox="0 0 200 200" fill="none" xmlns="http://www.w3.org/2000/svg">
<path d="M123.574 120.285C115.048 122.868 104.246 122.058 92.4624 111.44C83.2672 99.1523 83.7472 79.5938 96.8914 70.2309C108.058 61.0332 132.524 60.8565 146.354 79.4285C158.406 99.4146 149.537 127.139 136.25 137.448C107.013 160.126 42.3145 156.647 19.3693 103.144C16.0076 95.071 14.4101 86.3757 14.6831 77.638C14.866 69.6207 3.25336 68.3491 1.77321 76.2238C-4.09024 107.152 4.29923 141.799 31.2563 164.967C77.2666 204.511 166.024 191.197 191.73 136.273C196.62 125.831 199.401 114.529 199.913 103.014C200.426 91.4995 198.66 79.9965 194.717 69.1624C190.775 58.3283 184.731 48.3752 176.933 39.8715C169.135 31.3677 159.734 24.4799 149.268 19.6012C140.895 15.6979 131.834 13.4783 122.602 13.0692C113.369 12.66 104.146 14.0694 95.4595 17.2167C86.7729 20.364 78.7927 25.1877 71.9744 31.4124C65.1561 37.637 59.6335 45.1407 55.7216 53.495C42.5774 81.601 54.1442 116.367 82.8957 128.193C101.909 135.994 116.185 131.854 125.986 125.257C128.649 123.444 126.632 119.361 123.574 120.285Z" fill="#FF9000"/>
</svg>
