<svg width="200" height="200" viewBox="0 0 200 200" fill="none" xmlns="http://www.w3.org/2000/svg">
<path d="M150.543 0.0285691H126.27C125.612 0.0269038 124.965 0.202599 124.399 0.537094C123.833 0.87159 123.368 1.35247 123.053 1.92893C122.738 2.50539 122.585 3.15603 122.61 3.81212C122.635 4.46821 122.837 5.10539 123.195 5.65635C126.457 10.6371 128.01 16.5397 127.621 22.4768C127.162 29.2813 124.202 35.6772 119.308 40.4385C114.415 45.1999 107.932 47.9917 101.103 48.2789C97.3871 48.4187 93.6808 47.8092 90.2063 46.4869C86.7317 45.1645 83.5601 43.1564 80.8814 40.5828C78.2026 38.0092 76.0717 34.9229 74.616 31.5085C73.1602 28.0941 72.4097 24.4218 72.4092 20.7114C72.4018 15.3871 73.9478 10.1758 76.8585 5.71348C77.2317 5.16266 77.4476 4.52088 77.483 3.85694C77.5184 3.19301 77.372 2.53199 77.0595 1.94477C76.747 1.35755 76.2801 0.866285 75.7091 0.523677C75.138 0.181069 74.4842 3.80887e-05 73.8178 0H49.5045C42.7397 0.00151509 36.2526 2.68389 31.4698 7.45719C26.6869 12.2305 24 18.7038 24 25.4535V126.285C24 133.034 26.687 139.507 31.47 144.279C36.2531 149.052 42.7403 151.733 49.5045 151.733H73.7777C74.4357 151.731 75.082 151.907 75.6482 152.241C76.2145 152.576 76.6797 153.057 76.9946 153.633C77.3096 154.21 77.4627 154.86 77.4377 155.516C77.4127 156.172 77.2106 156.81 76.8528 157.361C74.1395 161.521 72.6017 166.335 72.4015 171.295C72.2014 176.255 73.3462 181.177 75.7153 185.541C78.0845 189.906 81.5902 193.552 85.8627 196.095C90.1352 198.638 95.0163 199.983 99.9911 199.99C104.966 199.996 109.85 198.662 114.129 196.13C118.408 193.598 121.923 189.96 124.303 185.601C126.682 181.242 127.839 176.323 127.652 171.363C127.464 166.403 125.938 161.585 123.235 157.418C122.86 156.867 122.642 156.225 122.606 155.561C122.569 154.896 122.715 154.234 123.028 153.646C123.341 153.058 123.809 152.566 124.381 152.224C124.953 151.882 125.608 151.702 126.276 151.704H150.543C157.303 151.704 163.786 149.027 168.569 144.261C173.352 139.495 176.044 133.03 176.053 126.285V25.4821C176.052 18.7319 173.364 12.2585 168.58 7.48541C163.796 2.71227 157.308 0.0300838 150.543 0.0285691V0.0285691Z" fill="#B573F5"/>
</svg>
