<svg width="201" height="200" viewBox="0 0 201 200" fill="none" xmlns="http://www.w3.org/2000/svg">
<path d="M144.999 15C136.253 15.0056 127.633 17.0798 119.846 21.0524C112.06 25.025 105.328 30.783 100.203 37.8539C95.0807 30.7825 88.3509 25.024 80.5658 21.0512C72.7807 17.0785 64.1623 15.0046 55.4181 15C24.8173 15 0 32.2776 0 70.295C0 115.769 74.114 169.921 94.8657 184.193C96.4305 185.269 98.2892 185.838 100.189 185.824C102.09 185.81 103.94 185.213 105.488 184.113C126.154 169.447 200.417 113.735 200.417 70.295C200.417 55.6299 194.578 41.5654 184.185 31.1955C173.792 20.8257 159.696 15 144.999 15V15Z" fill="#FF7FAF"/>
</svg>
