<svg width="200" height="200" viewBox="0 0 200 200" fill="none" xmlns="http://www.w3.org/2000/svg">
<path d="M153.286 0H46.7107C39.8918 0 33.3521 2.70278 28.5304 7.51374C23.7088 12.3247 21 18.8498 21 25.6535V131.981C21 138.785 23.7088 145.31 28.5304 150.121C33.3521 154.932 39.8918 157.635 46.7107 157.635H72.7476V193.921C72.6956 195.059 72.983 196.187 73.5737 197.163C74.1643 198.138 75.0316 198.916 76.0658 199.399C77.0999 199.883 78.2544 200.049 79.3833 199.877C80.5122 199.705 81.5647 199.203 82.4076 198.435L127.255 157.652H153.286C160.106 157.652 166.646 154.949 171.469 150.139C176.291 145.328 179.001 138.803 179.003 131.998V25.6535C179.001 18.8492 176.291 12.3242 171.469 7.51339C166.646 2.70259 160.106 -1.6868e-07 153.286 0V0Z" fill="#2898F4"/>
</svg>
